# xmcd
#
# Track frame offsets:
# 150
# 29222
# 58199
# 82430
#
# Disc length: 1502 seconds
#
# Revision: 1
# Processed by: cddbd v1.5.2PL0 Copyright (c) Steve Scherf et al.
# Submitted via: CedeCatalogueitor 2.6.0.6 http://personales.ya.com/cdcatalogueitor
#
DISCID=3c05dc04
DTITLE=Holy Ghost! - Static On The Wire
DYEAR=1900
DGENRE=
TTITLE0=Static On The Wire 
TTITLE1=Say My Name
TTITLE2=I Will Come Back
TTITLE3=I Know, I Hear
EXTD=
EXTT0=
EXTT1=
EXTT2=
EXTT3=
PLAYORDER=
